<svg width="40" height="41" viewBox="0 0 40 41" fill="none" xmlns="http://www.w3.org/2000/svg">
<path d="M24.8843 36.6378H7.4653C6.47535 36.6378 5.52594 36.2446 4.82593 35.5446C4.12593 34.8446 3.73267 33.8951 3.73267 32.9052V15.4862C3.73267 14.4963 4.12593 13.5468 4.82593 12.8468C5.52594 12.1468 6.47535 11.7536 7.4653 11.7536H24.8843C25.8742 11.7536 26.8237 12.1468 27.5237 12.8468C28.2237 13.5468 28.6169 14.4963 28.6169 15.4862V32.9052C28.6169 33.8951 28.2237 34.8446 27.5237 35.5446C26.8237 36.2446 25.8742 36.6378 24.8843 36.6378ZM7.4653 14.242C7.13532 14.242 6.81885 14.3731 6.58551 14.6064C6.35218 14.8398 6.22109 15.1562 6.22109 15.4862V32.9052C6.22109 33.2352 6.35218 33.5516 6.58551 33.785C6.81885 34.0183 7.13532 34.1494 7.4653 34.1494H24.8843C25.2143 34.1494 25.5307 34.0183 25.7641 33.785C25.9974 33.5516 26.1285 33.2352 26.1285 32.9052V15.4862C26.1285 15.1562 25.9974 14.8398 25.7641 14.6064C25.5307 14.3731 25.2143 14.242 24.8843 14.242H7.4653Z" fill="black"/>
<path d="M12.4421 10.5094C12.1121 10.5094 11.7956 10.3783 11.5623 10.1449C11.329 9.91161 11.1979 9.59514 11.1979 9.26515V8.02094C11.1979 7.03098 11.5911 6.08157 12.2911 5.38156C12.9911 4.68156 13.9406 4.2883 14.9305 4.2883H16.1747C16.5047 4.2883 16.8212 4.41939 17.0545 4.65272C17.2879 4.88606 17.4189 5.20253 17.4189 5.53251C17.4189 5.8625 17.2879 6.17897 17.0545 6.4123C16.8212 6.64564 16.5047 6.77673 16.1747 6.77673H14.9305C14.6005 6.77673 14.2841 6.90781 14.0507 7.14115C13.8174 7.37448 13.6863 7.69095 13.6863 8.02094V9.26515C13.6863 9.59514 13.5552 9.91161 13.3219 10.1449C13.0885 10.3783 12.7721 10.5094 12.4421 10.5094Z" fill="black"/>
<path d="M32.3495 29.1726H31.1053C30.7753 29.1726 30.4588 29.0415 30.2255 28.8082C29.9922 28.5748 29.8611 28.2583 29.8611 27.9284C29.8611 27.5984 29.9922 27.2819 30.2255 27.0486C30.4588 26.8152 30.7753 26.6841 31.1053 26.6841H32.3495C32.6795 26.6841 32.996 26.5531 33.2293 26.3197C33.4626 26.0864 33.5937 25.7699 33.5937 25.4399V24.1957C33.5937 23.8657 33.7248 23.5493 33.9581 23.3159C34.1915 23.0826 34.508 22.9515 34.8379 22.9515C35.1679 22.9515 35.4844 23.0826 35.7177 23.3159C35.9511 23.5493 36.0821 23.8657 36.0821 24.1957V25.4399C36.0821 26.4299 35.6889 27.3793 34.9889 28.0793C34.2889 28.7793 33.3395 29.1726 32.3495 29.1726Z" fill="black"/>
<path d="M34.8379 10.5094C34.508 10.5094 34.1915 10.3783 33.9581 10.1449C33.7248 9.91161 33.5937 9.59514 33.5937 9.26515V8.02094C33.5937 7.69095 33.4626 7.37448 33.2293 7.14115C32.996 6.90781 32.6795 6.77673 32.3495 6.77673H31.1053C30.7753 6.77673 30.4588 6.64564 30.2255 6.4123C29.9922 6.17897 29.8611 5.8625 29.8611 5.53251C29.8611 5.20253 29.9922 4.88606 30.2255 4.65272C30.4588 4.41939 30.7753 4.2883 31.1053 4.2883H32.3495C33.3395 4.2883 34.2889 4.68156 34.9889 5.38156C35.6889 6.08157 36.0821 7.03098 36.0821 8.02094V9.26515C36.0821 9.59514 35.9511 9.91161 35.7177 10.1449C35.4844 10.3783 35.1679 10.5094 34.8379 10.5094Z" fill="black"/>
<path d="M34.838 20.4631C34.508 20.4631 34.1915 20.332 33.9582 20.0987C33.7248 19.8653 33.5938 19.5489 33.5938 19.2189V14.242C33.5938 13.912 33.7248 13.5956 33.9582 13.3622C34.1915 13.1289 34.508 12.9978 34.838 12.9978C35.1679 12.9978 35.4844 13.1289 35.7178 13.3622C35.9511 13.5956 36.0822 13.912 36.0822 14.242V19.2189C36.0822 19.5489 35.9511 19.8653 35.7178 20.0987C35.4844 20.332 35.1679 20.4631 34.838 20.4631Z" fill="black"/>
<path d="M26.1284 6.77673H21.1516C20.8216 6.77673 20.5051 6.64564 20.2718 6.4123C20.0384 6.17897 19.9073 5.8625 19.9073 5.53251C19.9073 5.20253 20.0384 4.88606 20.2718 4.65272C20.5051 4.41939 20.8216 4.2883 21.1516 4.2883H26.1284C26.4584 4.2883 26.7749 4.41939 27.0082 4.65272C27.2415 4.88606 27.3726 5.20253 27.3726 5.53251C27.3726 5.8625 27.2415 6.17897 27.0082 6.4123C26.7749 6.64564 26.4584 6.77673 26.1284 6.77673Z" fill="black"/>
<path d="M19.9074 25.4399H12.4421C12.1121 25.4399 11.7956 25.3088 11.5623 25.0755C11.329 24.8422 11.1979 24.5257 11.1979 24.1957C11.1979 23.8657 11.329 23.5493 11.5623 23.3159C11.7956 23.0826 12.1121 22.9515 12.4421 22.9515H19.9074C20.2374 22.9515 20.5538 23.0826 20.7872 23.3159C21.0205 23.5493 21.1516 23.8657 21.1516 24.1957C21.1516 24.5257 21.0205 24.8422 20.7872 25.0755C20.5538 25.3088 20.2374 25.4399 19.9074 25.4399Z" fill="black"/>
<path d="M16.1748 29.1726C15.8448 29.1726 15.5283 29.0415 15.295 28.8082C15.0616 28.5748 14.9305 28.2583 14.9305 27.9284V20.4631C14.9305 20.1331 15.0616 19.8166 15.295 19.5833C15.5283 19.35 15.8448 19.2189 16.1748 19.2189C16.5047 19.2189 16.8212 19.35 17.0545 19.5833C17.2879 19.8166 17.419 20.1331 17.419 20.4631V27.9284C17.419 28.2583 17.2879 28.5748 17.0545 28.8082C16.8212 29.0415 16.5047 29.1726 16.1748 29.1726Z" fill="black"/>
</svg>
