<svg width="27" height="12" viewBox="0 0 27 12" fill="none" xmlns="http://www.w3.org/2000/svg">
<rect x="26.7711" y="11.4744" width="26" height="11" rx="5.5" transform="rotate(-180 26.7711 11.4744)" fill="white"/>
<path d="M6.41756 5.62081C6.2223 5.81607 6.2223 6.13266 6.41756 6.32792L9.59954 9.5099C9.79481 9.70516 10.1114 9.70516 10.3067 9.5099C10.5019 9.31464 10.5019 8.99805 10.3067 8.80279L7.47822 5.97436L10.3067 3.14594C10.5019 2.95068 10.5019 2.63409 10.3067 2.43883C10.1114 2.24357 9.79481 2.24357 9.59955 2.43883L6.41756 5.62081ZM20.7711 5.47437L6.77112 5.47436L6.77112 6.47436L20.7711 6.47437L20.7711 5.47437Z" fill="#EF8813"/>
</svg>
