<svg width="35" height="21" viewBox="0 0 35 21" fill="none" xmlns="http://www.w3.org/2000/svg">
<rect x="35" y="21" width="35" height="21" rx="10.5" transform="rotate(-180 35 21)" fill="white"/>
<path d="M9.96967 9.96967C9.67678 10.2626 9.67678 10.7374 9.96967 11.0303L14.7426 15.8033C15.0355 16.0962 15.5104 16.0962 15.8033 15.8033C16.0962 15.5104 16.0962 15.0355 15.8033 14.7426L11.5607 10.5L15.8033 6.25736C16.0962 5.96447 16.0962 5.48959 15.8033 5.1967C15.5104 4.9038 15.0355 4.9038 14.7426 5.1967L9.96967 9.96967ZM24.5 9.75L10.5 9.75L10.5 11.25L24.5 11.25L24.5 9.75Z" fill="#68BD43"/>
</svg>
