<svg width="23" height="23" viewBox="0 0 23 23" fill="none" xmlns="http://www.w3.org/2000/svg">
<path d="M14.375 20.8438H4.3125C3.74063 20.8438 3.19218 20.6166 2.7878 20.2122C2.38343 19.8078 2.15625 19.2594 2.15625 18.6875V8.625C2.15625 8.05313 2.38343 7.50468 2.7878 7.1003C3.19218 6.69593 3.74063 6.46875 4.3125 6.46875H14.375C14.9469 6.46875 15.4953 6.69593 15.8997 7.1003C16.3041 7.50468 16.5312 8.05313 16.5312 8.625V18.6875C16.5312 19.2594 16.3041 19.8078 15.8997 20.2122C15.4953 20.6166 14.9469 20.8438 14.375 20.8438ZM4.3125 7.90625C4.12188 7.90625 3.93906 7.98198 3.80427 8.11677C3.66948 8.25156 3.59375 8.43438 3.59375 8.625V18.6875C3.59375 18.8781 3.66948 19.0609 3.80427 19.1957C3.93906 19.3305 4.12188 19.4062 4.3125 19.4062H14.375C14.5656 19.4062 14.7484 19.3305 14.8832 19.1957C15.018 19.0609 15.0938 18.8781 15.0938 18.6875V8.625C15.0938 8.43438 15.018 8.25156 14.8832 8.11677C14.7484 7.98198 14.5656 7.90625 14.375 7.90625H4.3125Z" fill="black"/>
<path d="M7.1875 5.75C6.99688 5.75 6.81406 5.67427 6.67927 5.53948C6.54448 5.40469 6.46875 5.22187 6.46875 5.03125V4.3125C6.46875 3.74063 6.69593 3.19218 7.1003 2.7878C7.50468 2.38343 8.05313 2.15625 8.625 2.15625H9.34375C9.53437 2.15625 9.71719 2.23198 9.85198 2.36677C9.98677 2.50156 10.0625 2.68438 10.0625 2.875C10.0625 3.06562 9.98677 3.24844 9.85198 3.38323C9.71719 3.51802 9.53437 3.59375 9.34375 3.59375H8.625C8.43438 3.59375 8.25156 3.66948 8.11677 3.80427C7.98198 3.93906 7.90625 4.12188 7.90625 4.3125V5.03125C7.90625 5.22187 7.83052 5.40469 7.69573 5.53948C7.56094 5.67427 7.37812 5.75 7.1875 5.75Z" fill="black"/>
<path d="M18.6875 16.5312H17.9688C17.7781 16.5312 17.5953 16.4555 17.4605 16.3207C17.3257 16.1859 17.25 16.0031 17.25 15.8125C17.25 15.6219 17.3257 15.4391 17.4605 15.3043C17.5953 15.1695 17.7781 15.0938 17.9688 15.0938H18.6875C18.8781 15.0938 19.0609 15.018 19.1957 14.8832C19.3305 14.7484 19.4062 14.5656 19.4062 14.375V13.6562C19.4062 13.4656 19.482 13.2828 19.6168 13.148C19.7516 13.0132 19.9344 12.9375 20.125 12.9375C20.3156 12.9375 20.4984 13.0132 20.6332 13.148C20.768 13.2828 20.8438 13.4656 20.8438 13.6562V14.375C20.8438 14.9469 20.6166 15.4953 20.2122 15.8997C19.8078 16.3041 19.2594 16.5312 18.6875 16.5312Z" fill="black"/>
<path d="M20.125 5.75C19.9344 5.75 19.7516 5.67427 19.6168 5.53948C19.482 5.40469 19.4062 5.22187 19.4062 5.03125V4.3125C19.4062 4.12188 19.3305 3.93906 19.1957 3.80427C19.0609 3.66948 18.8781 3.59375 18.6875 3.59375H17.9688C17.7781 3.59375 17.5953 3.51802 17.4605 3.38323C17.3257 3.24844 17.25 3.06562 17.25 2.875C17.25 2.68438 17.3257 2.50156 17.4605 2.36677C17.5953 2.23198 17.7781 2.15625 17.9688 2.15625H18.6875C19.2594 2.15625 19.8078 2.38343 20.2122 2.7878C20.6166 3.19218 20.8438 3.74063 20.8438 4.3125V5.03125C20.8438 5.22187 20.768 5.40469 20.6332 5.53948C20.4984 5.67427 20.3156 5.75 20.125 5.75Z" fill="black"/>
<path d="M20.125 11.5C19.9344 11.5 19.7516 11.4243 19.6168 11.2895C19.482 11.1547 19.4062 10.9719 19.4062 10.7812V7.90625C19.4062 7.71563 19.482 7.53281 19.6168 7.39802C19.7516 7.26323 19.9344 7.1875 20.125 7.1875C20.3156 7.1875 20.4984 7.26323 20.6332 7.39802C20.768 7.53281 20.8438 7.71563 20.8438 7.90625V10.7812C20.8438 10.9719 20.768 11.1547 20.6332 11.2895C20.4984 11.4243 20.3156 11.5 20.125 11.5Z" fill="black"/>
<path d="M15.0938 3.59375H12.2188C12.0281 3.59375 11.8453 3.51802 11.7105 3.38323C11.5757 3.24844 11.5 3.06562 11.5 2.875C11.5 2.68438 11.5757 2.50156 11.7105 2.36677C11.8453 2.23198 12.0281 2.15625 12.2188 2.15625H15.0938C15.2844 2.15625 15.4672 2.23198 15.602 2.36677C15.7368 2.50156 15.8125 2.68438 15.8125 2.875C15.8125 3.06562 15.7368 3.24844 15.602 3.38323C15.4672 3.51802 15.2844 3.59375 15.0938 3.59375Z" fill="black"/>
<path d="M11.5 14.375H7.1875C6.99688 14.375 6.81406 14.2993 6.67927 14.1645C6.54448 14.0297 6.46875 13.8469 6.46875 13.6562C6.46875 13.4656 6.54448 13.2828 6.67927 13.148C6.81406 13.0132 6.99688 12.9375 7.1875 12.9375H11.5C11.6906 12.9375 11.8734 13.0132 12.0082 13.148C12.143 13.2828 12.2188 13.4656 12.2188 13.6562C12.2188 13.8469 12.143 14.0297 12.0082 14.1645C11.8734 14.2993 11.6906 14.375 11.5 14.375Z" fill="black"/>
<path d="M9.34375 16.5312C9.15313 16.5312 8.97031 16.4555 8.83552 16.3207C8.70073 16.1859 8.625 16.0031 8.625 15.8125V11.5C8.625 11.3094 8.70073 11.1266 8.83552 10.9918C8.97031 10.857 9.15313 10.7812 9.34375 10.7812C9.53437 10.7812 9.71719 10.857 9.85198 10.9918C9.98677 11.1266 10.0625 11.3094 10.0625 11.5V15.8125C10.0625 16.0031 9.98677 16.1859 9.85198 16.3207C9.71719 16.4555 9.53437 16.5312 9.34375 16.5312Z" fill="black"/>
</svg>
