<svg width="120" height="92" viewBox="0 0 120 92" fill="none" xmlns="http://www.w3.org/2000/svg">
<g clip-path="url(#clip0_15_20)">
<path fill-rule="evenodd" clip-rule="evenodd" d="M13.9153 73.0854H45.9271C45.7324 68.502 45.1947 64.2137 47.466 60.4788L50.5068 56.2181C54.3634 50.5742 58.322 42.597 59.4159 35.6343C59.5921 34.5092 59.898 29.9258 59.8424 28.7638C59.0451 12.9018 46.1403 0 29.9258 0C13.7206 0 0.843622 12.8649 0.00925816 28.7085C-0.0556368 29.935 0.222484 34.3801 0.398628 35.5513C0.713832 37.5894 1.23299 39.5722 1.87267 41.4166C3.96785 47.4479 7.03645 53.2025 10.7355 58.2378C12.6916 60.8937 13.563 61.8528 14.0266 66.0212C14.3232 68.6864 14.0266 70.5309 13.9153 73.0946V73.0854ZM18.597 14.156C19.1996 9.9599 24.9938 9.6648 26.542 10.8729C26.8665 11.1219 27.2559 11.7582 27.9141 11.3801C28.1737 11.2326 28.5538 10.504 28.7948 10.2366C32.3269 6.37249 38.3436 9.32358 38.3065 13.8148C36.369 14.6816 35.0711 17.1901 34.8486 20.1596C34.2923 20.3625 33.699 20.4547 33.1891 20.6299C32.6421 20.8144 32.2528 21.0818 31.8078 21.257C31.2793 21.4599 29.8053 20.5192 28.9431 20.344C26.8201 19.9106 24.1131 20.5377 23.186 22.3913C23.0191 22.1423 23.1304 22.3637 23.0284 22.004C22.8986 21.5337 22.8615 20.8328 22.5371 19.7354C22.1013 18.269 21.2948 16.6644 20.2194 15.6315L18.597 14.1652V14.156ZM27.1817 8.89014C27.6545 8.61347 28.1644 8.02326 28.7299 7.63593C32.7812 4.80473 39.2336 7.22093 40.2256 12.5052C40.8931 12.5698 41.746 12.4038 42.5433 12.4499C44.4901 12.5698 46.474 13.2983 47.8739 14.4787C50.0432 16.3232 50.5902 17.8633 50.3677 21.755C50.8776 22.5389 51.3968 23.1844 51.7398 24.2081C52.0828 25.2318 52.2033 26.4214 52.0643 27.5742C51.8232 29.6953 50.6644 31.2169 49.0791 31.8901C44.5643 33.8268 42.1632 29.8797 37.6854 29.7229C36.5636 29.686 35.5253 29.8059 34.5426 30.2117C32.8183 30.9218 30.1576 34.3432 27.0983 33.338C26.1248 33.0152 25.5779 32.4619 25.068 31.7241C24.5025 30.8941 24.0945 29.7137 25.1885 29.2157C27.4505 28.1921 26.3473 32.3974 29.8238 30.3685C31.5111 29.3909 32.1693 28.2197 34.4128 27.565C40.1699 25.8865 43.5538 29.5108 45.9549 29.8152C50.4048 30.3777 50.1916 25.4531 48.5599 23.5072C47.5216 22.2715 47.5772 23.0646 47.9017 20.9711C48.8473 14.9952 40.1885 13.0401 37.8059 16.9595C37.4444 17.5589 36.9159 18.7855 36.9623 19.6708C39.5488 20.1411 41.403 21.4415 42.5803 22.9723C43.5167 24.1897 42.8214 25.656 41.3751 25.2041C40.513 24.9366 37.8245 19.8368 32.2991 23.2859C30.9641 24.1251 30.8065 23.1291 29.2583 22.5389C28.1458 22.1147 26.5327 22.0593 25.6149 22.7141C24.5488 23.4795 24.4283 24.1435 23.974 25.6191C23.6217 26.7719 22.3238 26.5966 21.1187 27.15C17.8183 28.6624 18.1891 31.3276 17.8832 32.8585C17.707 33.7253 17.6421 33.587 17.9759 34.583C19.3572 38.7145 24.3449 39.7566 28.4054 39.6091C28.7392 39.9687 28.7299 40.0609 29.2861 40.2177C32.5865 41.1492 37.945 41.5273 38.6125 37.405C38.8072 36.2153 38.3436 35.8649 37.6112 35.4683C35.961 34.5738 37.1013 32.2037 39.0575 33.3657C42.775 35.5698 41.5884 42.182 35.1545 43.2795C32.5309 43.7314 31.2237 43.0674 29.8424 43.0489C32.1693 47.1251 39.3912 49.0986 42.7472 46.6455C44.4345 45.4098 43.5352 44.6351 44.9073 44.0172C49.0142 42.182 49.7929 39.231 49.3665 34.7674C51.9067 34.5277 53.6588 32.674 54.5952 30.9126C54.6508 31.9455 54.1873 35.579 53.9648 36.6026C52.9357 41.2875 50.581 46.2859 48.2725 50.1961C43.8968 57.6199 40.9116 58.1271 40.4852 68.1516L19.3109 68.1331C19.0791 63.0333 18.2077 59.6949 15.7416 56.4395C11.4122 50.731 7.26822 43.4362 5.70147 35.9848C5.39554 34.5369 5.05252 30.4976 5.13596 28.9575C5.22866 27.15 5.4697 25.7298 5.89616 24.0237C5.97959 23.6732 6.12792 22.9262 6.39677 22.6496C7.5278 24.7153 8.27873 26.0249 9.89183 27.1868C11.542 28.3857 13.5259 29.2157 16.1032 28.9114C16.6873 27.7125 17.2991 26.7626 18.0871 26.1171C19.7095 24.7983 19.7095 25.1211 21.1094 24.411C21.1279 12.1455 9.2058 13.7133 11.0877 19.6431C12.191 23.1291 15.3894 20.7867 16.4369 21.4322C17.5031 22.0962 17.1044 23.4058 15.9271 23.8023C14.8331 24.1712 13.5074 24.3003 12.3671 24.0329C10.3739 23.5625 9.02038 21.9395 8.54758 19.7999C8.18602 18.1492 8.35289 17.7526 9.09455 16.646C11.5884 12.9387 12.1724 12.1917 16.7892 12.8833C18.013 9.19447 22.5742 7.07338 27.1261 8.89014H27.1817Z" fill="#57C7EF"/>
<path fill-rule="evenodd" clip-rule="evenodd" d="M18.3189 75.9628H42.4691V82.2246H18.3189V75.9628Z" fill="#57B6DE"/>
<path fill-rule="evenodd" clip-rule="evenodd" d="M21.165 84.6685H39.623V90.9303H21.165V84.6685Z" fill="#57B6DE"/>
<path d="M79.7095 5.68085V18.8408C79.7095 24.743 77.67 26.3661 72.8121 27.6111L65.581 29.4186L64.5427 25.9142L67.361 25.2133L65.0618 5.67163H69.9938L71.9963 24.0329C74.2213 23.4058 74.7775 22.5205 74.7775 19.6432V5.68085H79.7095Z" fill="white"/>
<path d="M95.0896 9.3236H93.013V27.7955H88.081V9.3236H82.1848V5.67163H95.0804V9.3236H95.0896Z" fill="white"/>
<path d="M97.7596 18.472V5.68091H102.692V18.472H97.7596Z" fill="white"/>
<path d="M79.487 57.5H74.5921V39.0281H65.5161V35.3761H79.487V57.5ZM70.5222 43.6022V57.5H65.5902V43.6022H70.5222Z" fill="white"/>
<path d="M83.4178 57.5V35.3761H88.3128V57.5H83.4178Z" fill="white"/>
<path d="M92.2343 57.5V35.3761H97.1292V57.5H92.2343Z" fill="white"/>
<path d="M120 47.6969C120 54.7057 117.886 57.5 111.035 57.5H101.514L100.216 35.3761H105L106.038 53.848H110.117C114.493 53.848 115.235 52.188 115.235 47.3556V35.3761H120.019V47.6876L120 47.6969ZM108.022 35.3853H112.546V49.1724H108.022V35.3853Z" fill="white"/>
<path d="M79.3387 73.6018V92H74.4067V72.7165C74.4067 70.0236 73.9617 68.7325 71.5884 68.7325H70.068V78.5357H65.3585V65.0806H72.5896C78.0408 65.0806 79.3387 67.9579 79.3387 73.5926V73.6018Z" fill="white"/>
<path d="M97.2404 77.4751C97.2404 84.9635 94.9784 87.2045 88.7114 87.2045H83.631L82.259 65.0806H97.2312V77.4659L97.2404 77.4751ZM92.4197 68.6311H87.3022L88.1551 83.6724H88.9339C91.8634 83.6724 92.4197 82.3813 92.4197 78.2867V68.6311Z" fill="white"/>
<path d="M111.026 72.4214V79.8729C111.026 85.5537 109.024 87.2137 104.425 87.2137H99.6786V83.5617H102.46C105.501 83.5617 106.094 82.6764 106.094 79.504V72.7903C106.094 69.6179 105.501 68.7325 102.46 68.7325H99.6786V65.0806H104.425C109.024 65.0806 111.026 66.7405 111.026 72.4214Z" fill="white"/>
</g>
<defs>
<clipPath id="clip0_15_20">
<rect width="120" height="92" fill="white"/>
</clipPath>
</defs>
</svg>
