<svg width="140" height="107" viewBox="0 0 140 107" fill="none" xmlns="http://www.w3.org/2000/svg">
<g clip-path="url(#clip0_15_935)">
<path fill-rule="evenodd" clip-rule="evenodd" d="M16.2343 85.0015H53.5814C53.3542 79.6708 52.7269 74.6833 55.3768 70.3394L58.9244 65.3841C63.4238 58.82 68.0421 49.5422 69.3184 41.4443C69.5239 40.1357 69.8808 34.805 69.8159 33.4536C68.8858 15.0053 53.8301 0 34.9133 0C16.0072 0 0.984027 14.9624 0.0106028 33.3892C-0.0651079 34.8158 0.259367 39.9856 0.464867 41.3477C0.832605 43.7181 1.43829 46.0242 2.18458 48.1693C4.62896 55.1839 8.209 61.8768 12.5245 67.7331C14.8066 70.8221 15.8233 71.9375 16.3641 76.7856C16.7102 79.8853 16.3641 82.0305 16.2343 85.0122V85.0015ZM21.6963 16.464C22.3994 11.5838 29.1592 11.2406 30.9655 12.6456C31.344 12.9352 31.7983 13.6753 32.5662 13.2356C32.8691 13.064 33.3125 12.2166 33.5937 11.9056C37.7146 7.41149 44.734 10.8437 44.6908 16.0672C42.4303 17.0754 40.916 19.9928 40.6565 23.4465C40.0075 23.6824 39.3153 23.7897 38.7204 23.9935C38.0823 24.208 37.628 24.519 37.1089 24.7228C36.4924 24.9588 34.7727 23.8648 33.7668 23.661C31.29 23.1569 28.1317 23.8862 27.0502 26.0421C26.8555 25.7525 26.9853 26.0099 26.8663 25.5916C26.7149 25.0446 26.6716 24.2295 26.293 22.9531C25.7847 21.2477 24.8437 19.3814 23.5891 18.1801L21.6963 16.4747V16.464ZM31.7118 10.3396C32.2634 10.0178 32.8583 9.3314 33.518 8.88091C38.2445 5.58811 45.7723 8.39826 46.9296 14.5441C47.7084 14.6192 48.7034 14.4261 49.6336 14.4798C51.9049 14.6192 54.2195 15.4665 55.8527 16.8394C58.3836 18.9846 59.0217 20.7758 58.7621 25.302C59.357 26.2137 59.9627 26.9645 60.3629 28.1551C60.7631 29.3456 60.9037 30.7292 60.7414 32.07C60.4602 34.5369 59.1083 36.3066 57.2587 37.0896C51.9914 39.342 49.1901 34.7514 43.9661 34.5691C42.6574 34.5262 41.446 34.6656 40.2995 35.1375C38.2878 35.9634 35.1837 39.9427 31.6144 38.7736C30.4788 38.3982 29.8406 37.7546 29.2458 36.8966C28.586 35.9312 28.1101 34.5583 29.3864 33.9791C32.0254 32.7886 30.7383 37.6795 34.7943 35.3199C36.7628 34.1829 37.5307 32.8208 40.1481 32.0592C46.8647 30.1072 50.8125 34.3224 53.6138 34.6763C58.8054 35.3306 58.5566 29.603 56.6531 27.3399C55.4417 25.9027 55.5066 26.8251 55.8851 24.3903C56.9883 17.4401 46.8864 15.1662 44.1067 19.7246C43.6849 20.4218 43.0684 21.8483 43.1225 22.878C46.1401 23.425 48.3032 24.9373 49.6769 26.7178C50.7693 28.1336 49.9581 29.839 48.2708 29.3135C47.2649 29.0024 44.1283 23.0711 37.6821 27.0825C36.1246 28.0585 35.9408 26.9002 34.1345 26.2137C32.8366 25.7203 30.9547 25.656 29.8839 26.4175C28.6401 27.3077 28.4995 28.08 27.9695 29.7961C27.5585 31.1368 26.0443 30.933 24.6382 31.5766C20.7878 33.3356 21.2204 36.4353 20.8635 38.2158C20.658 39.224 20.5823 39.0631 20.9717 40.2215C22.5832 45.0267 28.4021 46.2387 33.1395 46.0671C33.5288 46.4854 33.518 46.5926 34.167 46.775C38.0174 47.8583 44.2689 48.298 45.0477 43.5036C45.2748 42.12 44.734 41.7124 43.8796 41.2512C41.9544 40.2108 43.2847 37.4543 45.5668 38.8057C49.904 41.3692 48.5196 49.0595 41.0134 50.3359C37.9525 50.8615 36.4275 50.0892 34.8159 50.0678C37.5307 54.8085 45.9562 57.1038 49.8715 54.2508C51.84 52.8136 50.7909 51.9126 52.3916 51.194C57.183 49.0595 58.0916 45.6273 57.594 40.436C60.5576 40.1572 62.6018 38.0013 63.6942 35.9527C63.7591 37.154 63.2183 41.3799 62.9587 42.5705C61.7581 48.0191 59.0109 53.8325 56.3178 58.3802C51.2127 67.0144 47.73 67.6043 47.2325 79.2632L22.5291 79.2418C22.2587 73.3104 21.2421 69.4277 18.3651 65.6415C13.3141 59.0023 8.47939 50.5182 6.65152 41.8518C6.2946 40.1679 5.89441 35.47 5.99175 33.6788C6.09991 31.5766 6.38112 29.9248 6.87865 27.9406C6.97599 27.533 7.14905 26.6642 7.4627 26.3424C8.78223 28.745 9.65832 30.268 11.5403 31.6195C13.4655 33.0138 15.7801 33.9791 18.7869 33.6252C19.4683 32.2309 20.1821 31.1261 21.1015 30.3753C22.9942 28.8415 22.9942 29.2169 24.6274 28.391C24.649 14.1258 10.7399 15.9492 12.9355 22.8458C14.2226 26.9002 17.9541 24.1758 19.1762 24.9266C20.4201 25.6989 19.955 27.2219 18.5814 27.6831C17.3051 28.1122 15.7584 28.2623 14.4281 27.9513C12.1027 27.4043 10.5236 25.5165 9.97198 23.0282C9.55016 21.1083 9.74484 20.6471 10.6101 19.36C13.5196 15.0482 14.201 14.1794 19.5872 14.9839C21.0149 10.6936 26.3363 8.22664 31.6469 10.3396H31.7118Z" fill="#57C7EF"/>
<path fill-rule="evenodd" clip-rule="evenodd" d="M21.3721 88.3479H49.5473V95.6307H21.3721V88.3479Z" fill="#57B6DE"/>
<path fill-rule="evenodd" clip-rule="evenodd" d="M24.6925 98.4731H46.2268V105.756H24.6925V98.4731Z" fill="#57B6DE"/>
<path d="M92.9944 6.60716V21.9128C92.9944 28.7773 90.6149 30.665 84.9475 32.113L76.5111 34.2152L75.2997 30.1394L78.5878 29.3243L75.9054 6.59644H81.6594L83.9957 27.9514C86.5915 27.222 87.2404 26.1924 87.2404 22.8459V6.60716H92.9944Z" fill="white"/>
<path d="M110.938 10.8438H108.515V32.3275H102.761V10.8438H95.8822V6.59644H110.927V10.8438H110.938Z" fill="white"/>
<path d="M114.053 21.4838V6.60718H119.807V21.4838H114.053Z" fill="white"/>
<path d="M92.7349 66.8751H87.0241V45.3914H76.4354V41.144H92.7349V66.8751ZM82.276 50.7114V66.8751H76.5219V50.7114H82.276Z" fill="white"/>
<path d="M97.3208 66.8751V41.144H103.032V66.8751H97.3208Z" fill="white"/>
<path d="M107.607 66.8751V41.144H113.317V66.8751H107.607Z" fill="white"/>
<path d="M140 55.4736C140 63.6252 137.534 66.8751 129.541 66.8751H118.433L116.919 41.144H122.5L123.711 62.6277H128.47C133.575 62.6277 134.441 60.6971 134.441 55.0768V41.144H140.022V55.4629L140 55.4736ZM126.026 41.1548H131.304V57.1898H126.026V41.1548Z" fill="white"/>
<path d="M92.5618 85.6022V107H86.8078V84.5726C86.8078 81.4406 86.2886 79.939 83.5198 79.939H81.746V91.3405H76.2515V75.6917H84.6879C91.0476 75.6917 92.5618 79.0381 92.5618 85.5915V85.6022Z" fill="white"/>
<path d="M113.447 90.107C113.447 98.8164 110.808 101.423 103.497 101.423H97.5695L95.9688 75.6917H113.436V90.0963L113.447 90.107ZM107.823 79.8211H101.853L102.848 97.3147H103.756C107.174 97.3147 107.823 95.8131 107.823 91.0509V79.8211Z" fill="white"/>
<path d="M129.53 84.2293V92.8957C129.53 99.5028 127.194 101.433 121.829 101.433H116.292V97.186H119.536C123.084 97.186 123.776 96.1564 123.776 92.4667V84.6584C123.776 80.9687 123.084 79.939 119.536 79.939H116.292V75.6917H121.829C127.194 75.6917 129.53 77.6223 129.53 84.2293Z" fill="white"/>
</g>
<defs>
<clipPath id="clip0_15_935">
<rect width="140" height="107" fill="white"/>
</clipPath>
</defs>
</svg>
