<svg width="198" height="152" viewBox="0 0 198 152" fill="none" xmlns="http://www.w3.org/2000/svg">
<g clip-path="url(#clip0_15_504)">
<path fill-rule="evenodd" clip-rule="evenodd" d="M22.9602 120.75H75.7796C75.4584 113.177 74.5712 106.092 78.3189 99.9214L83.3362 92.8821C89.6996 83.5573 96.2312 70.3777 98.0362 58.8741C98.3269 57.0152 98.8317 49.4427 98.7399 47.5229C97.4244 21.316 76.1314 0 49.3776 0C22.639 0 1.39194 21.255 0.0152393 47.4314C-0.0918373 49.4579 0.367063 56.8019 0.657699 58.737C1.17779 62.1042 2.0344 65.3801 3.08987 68.4274C6.54691 78.3921 11.6101 87.8998 17.7135 96.2189C20.9411 100.607 22.379 102.192 23.1438 109.079C23.6333 113.482 23.1438 116.529 22.9602 120.765V120.75ZM30.685 23.3881C31.6793 16.4555 41.2397 15.9679 43.7943 17.9639C44.3297 18.3753 44.9721 19.4266 46.0582 18.8019C46.4865 18.5581 47.1137 17.3545 47.5114 16.9126C53.3394 10.5285 63.2669 15.4042 63.2057 22.8244C60.0087 24.2566 57.8672 28.401 57.5001 33.3071C56.5823 33.6423 55.6033 33.7947 54.762 34.0842C53.8595 34.3889 53.217 34.8308 52.4828 35.1203C51.6109 35.4555 49.1787 33.9014 47.7561 33.6119C44.2532 32.8957 39.7866 33.9318 38.2569 36.9944C37.9816 36.583 38.1651 36.9487 37.9968 36.3545C37.7827 35.5774 37.7215 34.4194 37.1861 32.6063C36.4672 30.1836 35.1364 27.5325 33.362 25.826L30.685 23.4034V23.3881ZM44.8498 14.6881C45.6299 14.231 46.4712 13.2558 47.4043 12.6159C54.0889 7.93825 64.7354 11.9302 66.3722 20.6608C67.4735 20.7674 68.8808 20.4932 70.1963 20.5694C73.4086 20.7674 76.6821 21.9711 78.9919 23.9214C82.5713 26.9687 83.4738 29.5132 83.1067 35.9431C83.948 37.2382 84.8046 38.3047 85.3706 39.996C85.9366 41.6872 86.1354 43.6528 85.906 45.5573C85.5083 49.0617 83.5962 51.5758 80.9805 52.6881C73.531 55.8877 69.5692 49.3665 62.1809 49.1075C60.33 49.0465 58.6167 49.2446 56.9953 49.915C54.1501 51.0882 49.76 56.741 44.7121 55.0802C43.1059 54.5469 42.2034 53.6327 41.3621 52.4138C40.429 51.0425 39.756 49.0922 41.561 48.2694C45.2934 46.5782 43.4731 53.5261 49.2093 50.174C51.9933 48.5589 53.0794 46.6239 56.7812 45.5421C66.2804 42.769 71.8637 48.757 75.8255 49.2598C83.1679 50.1893 82.8161 42.0529 80.1239 38.838C78.4106 36.7963 78.5024 38.1067 79.0378 34.648C80.5981 24.7747 66.311 21.5445 62.3797 28.02C61.7832 29.0104 60.9112 31.0369 60.9877 32.4996C65.2555 33.2767 68.3148 35.425 70.2575 37.9543C71.8025 39.9655 70.6552 42.3881 68.2689 41.6415C66.8464 41.1997 62.4103 32.7739 53.2935 38.4723C51.0908 39.8589 50.8307 38.2133 48.2762 37.2382C46.4406 36.5373 43.779 36.4459 42.2646 37.5277C40.5055 38.7923 40.3066 39.8893 39.5571 42.3272C38.9758 44.2318 36.8343 43.9423 34.8457 44.8565C29.4001 47.3553 30.012 51.7586 29.5072 54.2879C29.2166 55.7201 29.1095 55.4916 29.6602 57.1371C31.9394 63.9631 40.169 65.6848 46.8689 65.4411C47.4196 66.0353 47.4043 66.1877 48.3221 66.4467C53.7677 67.9856 62.6092 68.6103 63.7105 61.7995C64.0318 59.834 63.2669 59.255 62.0585 58.5998C59.3357 57.1219 61.2172 53.2061 64.4448 55.1259C70.5787 58.7674 68.6208 69.6921 58.0049 71.5052C53.6759 72.2518 51.5191 71.1548 49.2399 71.1243C53.0794 77.8589 64.9955 81.1195 70.5329 77.0666C73.3168 75.0249 71.8331 73.745 74.097 72.7241C80.8734 69.6921 82.1583 64.8164 81.4547 57.4419C85.646 57.0457 88.537 53.9832 90.082 51.073C90.1738 52.7795 89.4089 58.7827 89.0418 60.4739C87.3439 68.2141 83.4585 76.4723 79.6497 82.9326C72.4296 95.1981 67.5041 96.0361 66.8005 112.598L31.8629 112.568C31.4805 104.142 30.0426 98.6263 25.9737 93.2478C18.8301 83.8164 11.9925 71.7642 9.40739 59.4531C8.9026 57.0609 8.33662 50.3873 8.47429 47.8428C8.62726 44.8565 9.02497 42.51 9.72862 39.6913C9.86629 39.1123 10.111 37.8781 10.5546 37.421C12.4208 40.834 13.6599 42.9976 16.3215 44.9174C19.0443 46.8982 22.3178 48.2694 26.5702 47.7666C27.5339 45.7859 28.5435 44.2165 29.8437 43.15C32.5206 40.9711 32.5206 41.5044 34.8304 40.3312C34.861 20.0666 15.1895 22.6568 18.2948 32.4539C20.1151 38.2133 25.3924 34.3432 27.1209 35.4098C28.88 36.5068 28.2223 38.6704 26.2796 39.3256C24.4746 39.935 22.2872 40.1484 20.4057 39.7065C17.1169 38.9294 14.8836 36.2478 14.1035 32.7129C13.5069 29.9856 13.7822 29.3304 15.006 27.502C19.1208 21.3769 20.0845 20.1427 27.7022 21.2855C29.7214 15.1909 37.2473 11.6864 44.758 14.6881H44.8498Z" fill="#57C7EF"/>
<path fill-rule="evenodd" clip-rule="evenodd" d="M30.2262 125.504H70.074V135.849H30.2262V125.504Z" fill="#57B6DE"/>
<path fill-rule="evenodd" clip-rule="evenodd" d="M34.9223 139.887H65.3779V150.233H34.9223V139.887Z" fill="#57B6DE"/>
<path d="M131.521 9.38584V31.1284C131.521 40.8798 128.155 43.5615 120.14 45.6184L108.209 48.6048L106.495 42.8149L111.146 41.6569L107.352 9.37061H115.49L118.794 39.7066C122.465 38.6705 123.383 37.2078 123.383 32.454V9.38584H131.521Z" fill="#0C0C0C"/>
<path d="M156.898 15.4043H153.471V45.9231H145.334V15.4043H135.605V9.37061H156.883V15.4043H156.898Z" fill="#0C0C0C"/>
<path d="M161.303 30.5189V9.38574H169.441V30.5189H161.303Z" fill="#0C0C0C"/>
<path d="M131.154 95H123.077V64.4812H108.102V58.4475H131.154V95ZM116.362 72.0385V95H108.224V72.0385H116.362Z" fill="#0C0C0C"/>
<path d="M137.639 95V58.4475H145.716V95H137.639Z" fill="#0C0C0C"/>
<path d="M152.186 95V58.4475H160.263V95H152.186Z" fill="#0C0C0C"/>
<path d="M198 78.8036C198 90.3834 194.512 95 183.208 95H167.498L165.357 58.4475H173.25L174.963 88.9664H181.694C188.914 88.9664 190.138 86.2238 190.138 78.2398V58.4475H198.031V78.7883L198 78.8036ZM178.237 58.4627H185.701V81.2414H178.237V58.4627Z" fill="#0C0C0C"/>
<path d="M130.909 121.603V152H122.771V120.141C122.771 115.691 122.037 113.558 118.121 113.558H115.612V129.755H107.841V107.525H119.773C128.767 107.525 130.909 112.278 130.909 121.588V121.603Z" fill="#0C0C0C"/>
<path d="M160.447 128.003C160.447 140.375 156.714 144.077 146.374 144.077H137.991L135.727 107.525H160.431V127.987L160.447 128.003ZM152.492 113.391H144.049L145.456 138.242H146.741C151.575 138.242 152.492 136.108 152.492 129.343V113.391Z" fill="#0C0C0C"/>
<path d="M183.193 119.653V131.964C183.193 141.35 179.889 144.092 172.302 144.092H164.47V138.059H169.059C174.076 138.059 175.055 136.596 175.055 131.355V120.262C175.055 115.021 174.076 113.558 169.059 113.558H164.47V107.525H172.302C179.889 107.525 183.193 110.267 183.193 119.653Z" fill="#0C0C0C"/>
</g>
<defs>
<clipPath id="clip0_15_504">
<rect width="198" height="152" fill="white"/>
</clipPath>
</defs>
</svg>
