<svg width="33" height="33" viewBox="0 0 33 33" fill="none" xmlns="http://www.w3.org/2000/svg">
<g clip-path="url(#clip0_15_42)">
<path d="M23.4377 19.2627L23.4257 19.3625C20.4982 17.9035 20.192 17.7091 19.8139 18.2762C19.5517 18.6689 18.7875 19.5596 18.5572 19.8232C18.3243 20.0828 18.0926 20.1027 17.6972 19.923C17.2979 19.7233 16.0158 19.304 14.4982 17.9461C13.316 16.8877 12.5226 15.5897 12.2883 15.1904C11.8982 14.5167 12.7143 14.4209 13.4572 13.0151C13.5903 12.7355 13.5224 12.5158 13.4239 12.3175C13.324 12.1178 12.5293 10.1608 12.1965 9.38071C11.8769 8.60326 11.5481 8.70177 11.3018 8.70177C10.535 8.63521 9.97457 8.64586 9.48067 9.15972C7.33201 11.5214 7.87383 13.9576 9.71231 16.5482C13.3254 21.2769 15.2504 22.1475 18.7702 23.3563C19.7208 23.6585 20.5874 23.6159 21.273 23.5174C22.0372 23.3963 23.6254 22.5576 23.9568 21.619C24.2963 20.6805 24.2963 19.9017 24.1965 19.722C24.098 19.5423 23.837 19.4424 23.4377 19.2627Z" fill="white"/>
<path d="M27.4487 4.80744C17.2127 -5.08785 0.272309 2.089 0.265653 16.0486C0.265653 18.839 0.996517 21.5601 2.38902 23.963L0.131195 32.1663L8.56476 29.967C19.0884 35.6515 32.0762 28.1032 32.0816 16.0566C32.0816 11.8285 30.4308 7.84938 27.4288 4.85936L27.4487 4.80744ZM29.4217 16.0127C29.4137 26.1742 18.259 32.5204 9.43674 27.3338L8.95748 27.0489L3.96524 28.3469L5.30316 23.4944L4.98499 22.9952C-0.50515 14.2554 5.80238 2.83317 16.2022 2.83317C19.7354 2.83317 23.0516 4.21103 25.549 6.70716C28.0452 9.18198 29.4217 12.4982 29.4217 16.0127Z" fill="white"/>
</g>
<defs>
<clipPath id="clip0_15_42">
<rect width="31.9504" height="31.9504" fill="white" transform="translate(0.131195 0.216309)"/>
</clipPath>
</defs>
</svg>
