<svg width="32" height="33" viewBox="0 0 32 33" fill="none" xmlns="http://www.w3.org/2000/svg">
<g clip-path="url(#clip0_15_565)">
<path d="M23.3065 19.2627L23.2945 19.3625C20.367 17.9035 20.0608 17.7091 19.6827 18.2762C19.4205 18.6689 18.6563 19.5596 18.426 19.8232C18.1931 20.0828 17.9614 20.1027 17.566 19.923C17.1667 19.7233 15.8847 19.304 14.367 17.9461C13.1848 16.8877 12.3914 15.5897 12.1571 15.1904C11.767 14.5167 12.5831 14.4209 13.326 13.0151C13.4591 12.7355 13.3912 12.5158 13.2927 12.3175C13.1928 12.1178 12.3981 10.1608 12.0653 9.38071C11.7457 8.60326 11.4169 8.70177 11.1706 8.70177C10.4038 8.63521 9.84337 8.64586 9.34947 9.15972C7.20081 11.5214 7.74264 13.9576 9.58111 16.5482C13.1942 21.2769 15.1192 22.1475 18.639 23.3563C19.5896 23.6585 20.4562 23.6159 21.1418 23.5174C21.906 23.3963 23.4942 22.5576 23.8256 21.619C24.1651 20.6805 24.1651 19.9017 24.0653 19.722C23.9668 19.5423 23.7058 19.4424 23.3065 19.2627Z" fill="white"/>
<path d="M27.3176 4.80744C17.0815 -5.08785 0.141114 2.089 0.134458 16.0486C0.134458 18.839 0.865322 21.5601 2.25783 23.963L0 32.1663L8.43356 29.967C18.9572 35.6515 31.945 28.1032 31.9504 16.0566C31.9504 11.8285 30.2996 7.84938 27.2976 4.85936L27.3176 4.80744ZM29.2905 16.0127C29.2825 26.1742 18.1278 32.5204 9.30554 27.3338L8.82629 27.0489L3.83404 28.3469L5.17196 23.4944L4.85379 22.9952C-0.636345 14.2554 5.67119 2.83317 16.071 2.83317C19.6042 2.83317 22.9204 4.21103 25.4178 6.70716C27.914 9.18198 29.2905 12.4982 29.2905 16.0127Z" fill="white"/>
</g>
<defs>
<clipPath id="clip0_15_565">
<rect width="31.9504" height="31.9504" fill="white" transform="translate(0 0.216309)"/>
</clipPath>
</defs>
</svg>
